<svg width="68" height="67" viewBox="0 0 68 67" fill="none" xmlns="http://www.w3.org/2000/svg">
<path d="M55.25 4.1875H44.6249C44.6239 4.1875 44.6231 4.18763 44.6222 4.18763C43.652 2.91712 42.1094 2.09375 40.375 2.09375H37.667C36.9174 0.816824 35.5248 0 34 0C32.4752 0 31.0826 0.816824 30.333 2.09375H27.625C25.8906 2.09375 24.348 2.91712 23.3778 4.18763C23.3769 4.18763 23.3759 4.1875 23.375 4.1875H12.75C9.82069 4.1875 7.4375 6.53564 7.4375 9.42188V61.7656C7.4375 64.6519 9.82069 67 12.75 67H55.25C58.1793 67 60.5625 64.6519 60.5625 61.7656V9.42188C60.5625 6.53564 58.1793 4.1875 55.25 4.1875ZM24.4375 7.32812C24.4375 5.59646 25.8675 4.1875 27.625 4.1875H31.0077C31.4573 4.1875 31.8583 3.90864 32.0089 3.49133C32.3104 2.6554 33.1106 2.09375 34 2.09375C34.8894 2.09375 35.6896 2.6554 35.9911 3.49133C36.1417 3.90864 36.5427 4.1875 36.9923 4.1875H40.375C42.1325 4.1875 43.5625 5.59646 43.5625 7.32812V10.4688H24.4375V7.32812ZM58.4375 61.7656C58.4375 63.4973 57.0075 64.9062 55.25 64.9062H12.75C10.9925 64.9062 9.5625 63.4973 9.5625 61.7656V9.42188C9.5625 7.69021 10.9925 6.28125 12.75 6.28125H22.4194C22.3494 6.61965 22.3125 6.9697 22.3125 7.32812V11.5156C22.3125 12.0938 22.7882 12.5625 23.375 12.5625H44.625C45.2118 12.5625 45.6875 12.0938 45.6875 11.5156V7.32812C45.6875 6.9697 45.6506 6.61965 45.5806 6.28125H55.25C57.0075 6.28125 58.4375 7.69021 58.4375 9.42188V61.7656Z" fill="white"/>
<path d="M55.25 8.375H48.875C48.2882 8.375 47.8125 8.84374 47.8125 9.42188C47.8125 10 48.2882 10.4688 48.875 10.4688H54.1875V47.1094H43.5625C41.805 47.1094 40.375 48.5183 40.375 50.25V56.5311C40.375 57.1093 40.8507 57.578 41.4375 57.578C42.0243 57.578 42.5 57.1093 42.5 56.5311V50.25C42.5 49.6728 42.9767 49.2031 43.5625 49.2031H52.6849L40.9974 60.7188H13.8125V10.4688H19.125C19.7118 10.4688 20.1875 10 20.1875 9.42188C20.1875 8.84374 19.7118 8.375 19.125 8.375H12.75C12.1632 8.375 11.6875 8.84374 11.6875 9.42188V61.7656C11.6875 62.3438 12.1632 62.8125 12.75 62.8125H41.4376C41.4388 62.8125 41.4399 62.8124 41.441 62.8124C41.4747 62.8122 41.5084 62.8107 41.5422 62.8074C41.5593 62.8057 41.576 62.8027 41.5929 62.8002C41.6102 62.7977 41.6276 62.7957 41.6447 62.7925C41.6643 62.7887 41.6833 62.7834 41.7026 62.7785C41.7168 62.7749 41.7311 62.7719 41.7451 62.7677C41.7645 62.762 41.7831 62.7549 41.8019 62.7481C41.8156 62.7431 41.8294 62.7388 41.843 62.7333C41.8613 62.7259 41.8788 62.7172 41.8965 62.7089C41.91 62.7024 41.9237 62.6967 41.937 62.6896C41.9553 62.6801 41.9727 62.6692 41.9903 62.6586C42.0022 62.6514 42.0143 62.6449 42.026 62.6373C42.0472 62.6233 42.0676 62.608 42.0876 62.5927C42.0948 62.5872 42.1024 62.5823 42.1095 62.5766C42.1381 62.5537 42.1653 62.5293 42.1912 62.5035L56.0011 48.8968C56.0026 48.8952 56.0038 48.8934 56.0054 48.8917C56.0366 48.8605 56.0651 48.827 56.0922 48.7924C56.0995 48.7829 56.1068 48.7735 56.1137 48.764C56.1401 48.7275 56.1648 48.6898 56.1865 48.65C56.1887 48.6459 56.1904 48.6416 56.1926 48.6374C56.2121 48.6004 56.229 48.5619 56.244 48.5225C56.2474 48.5134 56.251 48.5043 56.2542 48.495C56.2692 48.4519 56.2821 48.4078 56.2914 48.3622C56.2919 48.3597 56.292 48.3571 56.2926 48.3546C56.3005 48.3134 56.3056 48.2713 56.3085 48.2285C56.3094 48.2159 56.31 48.2035 56.3105 48.1909C56.3109 48.1793 56.3122 48.168 56.3122 48.1562V9.42188C56.3125 8.84374 55.8368 8.375 55.25 8.375Z" fill="white"/>
<path d="M34 4.1875C33.7198 4.1875 33.4462 4.29873 33.2483 4.49371C33.0504 4.68869 32.9375 4.95826 32.9375 5.23438C32.9375 5.51049 33.0504 5.78006 33.2483 5.97504C33.4462 6.17002 33.7198 6.28125 34 6.28125C34.2789 6.28125 34.5538 6.17002 34.7517 5.97504C34.9496 5.78006 35.0625 5.51049 35.0625 5.23438C35.0625 4.95826 34.9496 4.68869 34.7517 4.49371C34.5538 4.29873 34.2789 4.1875 34 4.1875Z" fill="white"/>
<path d="M38.25 19.8906H48.875C49.4618 19.8906 49.9375 19.4219 49.9375 18.8438C49.9375 18.2656 49.4618 17.7969 48.875 17.7969H38.25C37.6632 17.7969 37.1875 18.2656 37.1875 18.8438C37.1875 19.4219 37.6632 19.8906 38.25 19.8906Z" fill="white"/>
<path d="M29.75 24.0781H48.875C49.4618 24.0781 49.9375 23.6094 49.9375 23.0312C49.9375 22.4531 49.4618 21.9844 48.875 21.9844H29.75C29.1632 21.9844 28.6875 22.4531 28.6875 23.0312C28.6875 23.6094 29.1632 24.0781 29.75 24.0781Z" fill="white"/>
<path d="M48.875 30.3594H19.125C18.5382 30.3594 18.0625 30.8281 18.0625 31.4062C18.0625 31.9844 18.5382 32.4531 19.125 32.4531H48.875C49.4618 32.4531 49.9375 31.9844 49.9375 31.4062C49.9375 30.8281 49.4618 30.3594 48.875 30.3594Z" fill="white"/>
<path d="M48.875 34.5469H19.125C18.5382 34.5469 18.0625 35.0156 18.0625 35.5938C18.0625 36.1719 18.5382 36.6406 19.125 36.6406H48.875C49.4618 36.6406 49.9375 36.1719 49.9375 35.5938C49.9375 35.0156 49.4618 34.5469 48.875 34.5469Z" fill="white"/>
<path d="M48.875 38.7344H19.125C18.5382 38.7344 18.0625 39.2031 18.0625 39.7812C18.0625 40.3594 18.5382 40.8281 19.125 40.8281H48.875C49.4618 40.8281 49.9375 40.3594 49.9375 39.7812C49.9375 39.2031 49.4618 38.7344 48.875 38.7344Z" fill="white"/>
<path d="M49.9375 43.9688C49.9375 43.3906 49.4618 42.9219 48.875 42.9219H19.125C18.5382 42.9219 18.0625 43.3906 18.0625 43.9688C18.0625 44.5469 18.5382 45.0156 19.125 45.0156H48.875C49.4618 45.0156 49.9375 44.5469 49.9375 43.9688Z" fill="white"/>
<path d="M37.1875 47.1094H28.6875C28.1007 47.1094 27.625 47.5781 27.625 48.1562C27.625 48.7344 28.1007 49.2031 28.6875 49.2031H37.1875C37.7743 49.2031 38.25 48.7344 38.25 48.1562C38.25 47.5781 37.7743 47.1094 37.1875 47.1094Z" fill="white"/>
<path d="M37.1875 51.2969H28.6875C28.1007 51.2969 27.625 51.7656 27.625 52.3438C27.625 52.9219 28.1007 53.3906 28.6875 53.3906H37.1875C37.7743 53.3906 38.25 52.9219 38.25 52.3438C38.25 51.7656 37.7743 51.2969 37.1875 51.2969Z" fill="white"/>
<path d="M18.0625 18.8438C18.0625 19.4219 18.5382 19.8906 19.125 19.8906H24.4375C25.0243 19.8906 25.5 19.4219 25.5 18.8438C25.5 18.2656 25.0243 17.7969 24.4375 17.7969H19.125C18.5382 17.7969 18.0625 18.2656 18.0625 18.8438Z" fill="white"/>
<path d="M15.9375 51.8203C15.9375 54.418 18.0823 56.5312 20.7188 56.5312C23.3552 56.5312 25.5 54.418 25.5 51.8203C25.5 49.2226 23.3552 47.1094 20.7188 47.1094C18.0823 47.1094 15.9375 49.2226 15.9375 51.8203ZM23.375 51.8203C23.375 53.2634 22.1834 54.4375 20.7188 54.4375C19.2541 54.4375 18.0625 53.2634 18.0625 51.8203C18.0625 50.3772 19.2541 49.2031 20.7188 49.2031C22.1834 49.2031 23.375 50.3772 23.375 51.8203Z" fill="white"/>
</svg>
