<svg width="66" height="66" viewBox="0 0 66 66" fill="none" xmlns="http://www.w3.org/2000/svg">
<g clip-path="url(#clip0)">
<path d="M40.2688 29.1753L48.862 35.2924C49.2438 35.5643 49.7561 35.5643 50.138 35.2924L58.7312 29.1753C60.5213 27.9074 61.5896 25.8536 61.6 23.6599V10.6447C61.6006 10.2067 61.3414 9.81008 60.94 9.63489L49.94 4.88289C49.6619 4.76299 49.3468 4.76299 49.0688 4.88289L38.0688 9.63489C37.6673 9.81008 37.4081 10.2067 37.4088 10.6447V23.6599C37.4173 25.8519 38.4821 27.9054 40.2688 29.1753ZM39.6 11.3674L49.5 7.09169L59.4 11.3674V23.6599C59.3919 25.1446 58.6671 26.5339 57.4541 27.39L49.5 33.0462L41.5459 27.3834C40.3342 26.5291 39.6096 25.1424 39.6 23.6599V11.3674Z" fill="white"/>
<path d="M46.5246 25.3V12.1M46.5246 12.1L44.3607 14.3M46.5246 12.1L48.6885 14.3" stroke="white" stroke-width="2" stroke-linecap="round"/>
<path d="M53.0164 12.1V25.3M53.0164 25.3L50.8525 23.1M53.0164 25.3L55.1803 23.1" stroke="white" stroke-width="2" stroke-linecap="round"/>
<path d="M2.2 58.3008H3.3V62.7008C3.3 64.5234 4.77746 66.0008 6.6 66.0008H13.2C15.0225 66.0008 16.5 64.5234 16.5 62.7008V58.3008H42.9V62.7008C42.9 64.5234 44.3775 66.0008 46.2 66.0008H52.8C54.6225 66.0008 56.1 64.5234 56.1 62.7008V58.3008H57.2C58.415 58.3008 59.4 57.3158 59.4 56.1008V39.6008C59.4041 38.0066 58.7089 36.4908 57.4981 35.4538L61.2821 32.761C64.2312 30.6667 65.9881 27.2778 66 23.6607V7.75362C66.0006 7.31565 65.7414 6.91901 65.34 6.74382L49.94 0.0910231C49.662 -0.0288762 49.3468 -0.0288762 49.0688 0.0910231L33.66 6.74382C33.2586 6.91901 32.9994 7.31565 33 7.75362V12.1008H16.357C14.0249 12.1016 11.9468 13.5731 11.1716 15.7726L4.6926 34.1822C2.00289 34.5781 0.00750989 36.8821 0 39.6008V56.1008C0 57.3158 0.984973 58.3008 2.2 58.3008ZM14.3 62.7008C14.3 63.3083 13.8075 63.8008 13.2 63.8008H6.6C5.99249 63.8008 5.5 63.3083 5.5 62.7008V58.3008H14.3V62.7008ZM9.9 56.1008H7.7V53.9008H9.9V56.1008ZM53.9 62.7008C53.9 63.3083 53.4075 63.8008 52.8 63.8008H46.2C45.5925 63.8008 45.1 63.3083 45.1 62.7008V58.3008H53.9V62.7008ZM51.7 56.1008H49.5V53.9008H51.7V56.1008ZM35.2 8.47632L49.5 2.29872L63.8 8.47632V23.6563C63.7891 26.562 62.3762 29.2837 60.0061 30.9647L49.5 38.448L38.9939 30.968C36.6241 29.2873 35.2112 26.566 35.2 23.6607V8.47632ZM51.7 40.7008C52.3075 40.7008 52.8 41.1933 52.8 41.8008V44.0008C52.8 44.6083 52.3075 45.1008 51.7 45.1008H45.1C44.4925 45.1008 44 44.6083 44 44.0008C44 42.1783 45.4775 40.7008 47.3 40.7008H51.7ZM33 18.7008V20.9008H25.3V18.7008H33ZM33 16.5008H30.8V14.3008H33V16.5008ZM13.2473 16.5008C13.7133 15.1829 14.9591 14.3015 16.357 14.3008H28.6V16.5008H25.3C24.085 16.5008 23.1 17.4858 23.1 18.7008V20.9008C23.1 22.1159 24.085 23.1008 25.3 23.1008H33V23.6607C33.0119 27.2778 34.7688 30.6667 37.7179 32.761L39.6 34.1008H7.0532L13.2473 16.5008ZM2.2 39.6008C2.2 37.7783 3.67746 36.3008 5.5 36.3008H42.691L46.0152 38.668C43.5483 39.2607 41.8069 41.4638 41.8 44.0008C41.8 45.8234 43.2775 47.3008 45.1 47.3008H51.7C53.5225 47.3008 55 45.8234 55 44.0008V41.8008C54.9964 40.442 54.1603 39.2243 52.8935 38.7329L55.6171 36.7936C56.6036 37.384 57.2054 38.4512 57.2 39.6008L57.2 56.1008H53.9V53.9008C53.9 52.6858 52.915 51.7008 51.7 51.7008H49.5C48.285 51.7008 47.3 52.6858 47.3 53.9008V56.1008H12.1V53.9008C12.1 52.6858 11.115 51.7008 9.9 51.7008H7.7C6.48497 51.7008 5.5 52.6858 5.5 53.9008V56.1008H2.2V39.6008Z" fill="white"/>
<path d="M19.8 16.5H17.9179C16.5195 16.5016 15.2732 17.3824 14.8049 18.7L10.6755 30.4348C10.4738 31.008 10.7749 31.6362 11.3481 31.8379C11.9213 32.0395 12.5495 31.7384 12.7512 31.1652L16.8806 19.4348C17.0355 18.9946 17.4513 18.7001 17.9179 18.7H19.8C20.4075 18.7 20.9 18.2075 20.9 17.6C20.9 16.9925 20.4075 16.5 19.8 16.5Z" fill="white"/>
<path d="M7.70002 47.3H14.3C16.1226 47.3 17.6 45.8225 17.6 44C17.5964 40.9639 15.1361 38.5036 12.1 38.5H7.70002C5.87748 38.5 4.40002 39.9775 4.40002 41.8V44C4.40002 45.8225 5.87748 47.3 7.70002 47.3ZM6.60002 41.8C6.60002 41.1925 7.09251 40.7 7.70002 40.7H12.1C13.9226 40.7 15.4 42.1775 15.4 44C15.4 44.6075 14.9075 45.1 14.3 45.1H7.70002C7.09251 45.1 6.60002 44.6075 6.60002 44V41.8Z" fill="white"/>
<path d="M21.9999 53.9H37.3999C38.615 53.9 39.5999 52.915 39.5999 51.7V47.3C39.5999 46.0849 38.615 45.1 37.3999 45.1H21.9999C20.7849 45.1 19.7999 46.0849 19.7999 47.3V51.7C19.7999 52.915 20.7849 53.9 21.9999 53.9ZM21.9999 47.3H37.3999V51.7H21.9999V47.3Z" fill="white"/>
</g>
<defs>
<clipPath id="clip0">
<rect width="66" height="66" fill="white"/>
</clipPath>
</defs>
</svg>
