<svg width="63" height="62" viewBox="0 0 63 62" fill="none" xmlns="http://www.w3.org/2000/svg">
<g clip-path="url(#clip0)">
<path d="M62.7295 0.27071C62.369 -0.0842145 61.7845 -0.0842145 61.4241 0.27071L58.0153 3.62548C57.4264 3.24706 56.7414 3.00136 56.004 2.93198L35.7433 1.02476C34.4114 0.899184 33.105 1.3614 32.159 2.29236L11.3719 22.7496C11.0114 23.1044 11.0114 23.6795 11.3719 24.0343C11.7325 24.3891 12.3169 24.3891 12.6773 24.0343L33.4644 3.57716C34.0195 3.03103 34.7858 2.76002 35.5674 2.83341L55.828 4.7405C56.1222 4.76824 56.4011 4.84501 56.6588 4.96017L53.9301 7.64541C53.3169 7.2745 52.6101 7.07567 51.8721 7.07567C50.819 7.07567 49.829 7.47927 49.0843 8.21201C47.5472 9.7247 47.5471 12.1863 49.0843 13.6991C49.829 14.432 50.819 14.8354 51.8721 14.8354C52.9251 14.8354 53.9151 14.4318 54.6598 13.6991C55.9722 12.4075 56.1631 10.4249 55.2345 8.93106L57.9641 6.24485C58.0811 6.49842 58.1592 6.77306 58.1873 7.06247L60.1253 27.0016C60.2 27.7706 59.9246 28.5248 59.3694 29.0709C59.3694 29.0709 28.5375 59.4134 28.5023 59.448C27.4902 60.4441 25.8066 60.4429 24.7957 59.448C24.7957 59.448 2.64636 37.6503 2.59714 37.6018C1.58447 36.6052 1.58644 34.9486 2.59702 33.9539L9.67354 26.9897C10.0341 26.6349 10.0341 26.0598 9.67354 25.705C9.31301 25.3502 8.72854 25.3502 8.36814 25.705C8.36814 25.705 1.2942 32.6667 1.29162 32.6692C-0.431521 34.365 -0.430291 37.1919 1.29162 38.8865C1.29187 38.8866 23.487 60.7294 23.4905 60.7329C25.1865 62.402 28.0753 62.4383 29.8081 60.7329L60.6752 30.356C61.6213 29.425 62.0907 28.1394 61.9633 26.8286L60.0254 6.88967C59.9548 6.16384 59.7051 5.48971 59.3207 4.91028L62.7295 1.55551C63.0899 1.20059 63.0899 0.625392 62.7295 0.27071ZM53.3545 12.4145C52.546 13.2103 51.1976 13.2095 50.3898 12.4145C49.5724 11.6101 49.5724 10.3012 50.3898 9.49693C50.9508 8.94486 51.7997 8.75305 52.5495 9.00444L51.2195 10.3135C50.859 10.6683 50.859 11.2435 51.2195 11.5981C51.576 11.9488 52.1687 11.9489 52.5251 11.5981L53.854 10.2903C54.1024 11.0112 53.9375 11.8408 53.3545 12.4145Z" fill="white"/>
<path d="M55.0529 23.9213C55.0529 23.9213 38.708 7.83573 38.6961 7.8241C36.974 6.12928 34.0988 6.13122 32.3786 7.8241C32.3786 7.8241 7.15775 32.6446 7.13388 32.6681C6.28179 33.5067 5.85617 34.6419 5.85629 35.777C5.85642 36.9123 6.28253 38.0475 7.13388 38.8854C7.13388 38.8854 23.4795 54.9715 23.4907 54.9825C25.2128 56.6774 28.0877 56.6759 29.8083 54.9825C29.8083 54.9825 55.0431 30.1481 55.0529 30.1386C56.7756 28.4433 56.7742 25.6152 55.0529 23.9213ZM53.7474 28.8539C53.7474 28.8539 28.539 53.6623 28.5027 53.6979C27.4902 54.6943 25.8068 54.6926 24.796 53.6979C24.796 53.6979 8.45257 37.6139 8.43916 37.6007C7.42747 36.6048 7.42846 34.9475 8.43928 33.9528C8.43928 33.9528 33.6492 9.14305 33.684 9.10878C34.6964 8.11242 36.3792 8.11351 37.3906 9.10878C37.3906 9.10878 53.7191 25.1781 53.7474 25.2059C54.7541 26.1965 54.7509 27.8662 53.7474 28.8539Z" fill="white"/>
<path d="M35.9163 35.7551C33.7627 33.6358 30.5435 33.9356 28.4117 36.0335L28.3681 36.0764C26.28 38.1313 25.9536 41.2782 28.0853 43.3762C30.2387 45.4955 33.4799 45.1743 35.5897 43.0978L35.6333 43.055C37.7216 40.9998 38.048 37.8529 35.9163 35.7551ZM33.654 41.1924L33.6104 41.2353C32.4359 42.3913 30.8261 42.7765 29.8038 41.7704C28.825 40.8071 29.1078 39.1587 30.3476 37.9385L30.3911 37.8957C31.5657 36.7397 33.1756 36.3544 34.1978 37.3606C35.1768 38.3239 34.8721 39.9937 33.654 41.1924Z" fill="white"/>
<path d="M44.0519 28.5624C43.7473 28.2626 43.3339 28.1128 42.9209 28.2197L19.2977 31.8162C19.0366 31.8591 18.7538 31.966 18.5363 32.1801C18.0578 32.651 18.0578 33.3789 18.5364 33.85C18.8408 34.1497 19.2539 34.2995 19.689 34.2139L43.3122 30.6175C43.5733 30.5746 43.856 30.4677 44.0736 30.2536C44.5521 29.7827 44.5303 29.0334 44.0519 28.5624Z" fill="white"/>
<path d="M34.5025 19.0361C32.349 16.9168 29.1295 17.2166 26.9979 19.3144L26.9544 19.3573C24.8663 21.4124 24.54 24.5592 26.6716 26.6571C28.8468 28.7978 32.0661 28.4554 34.1761 26.3788L34.2197 26.3359C36.3079 24.2809 36.656 21.1554 34.5025 19.0361ZM32.2401 24.4735L32.1965 24.5163C31.0218 25.6724 29.4124 26.0576 28.39 25.0514C27.4111 24.088 27.694 22.4397 28.9338 21.2197L28.9774 21.1768C30.1519 20.021 31.7616 19.6356 32.7839 20.6417C33.7629 21.605 33.4582 23.2746 32.2401 24.4735Z" fill="white"/>
</g>
<defs>
<clipPath id="clip0">
<rect width="63" height="62" fill="white"/>
</clipPath>
</defs>
</svg>
